<?xml version="1.0" standalone="no"?>
<!DOCTYPE svg PUBLIC "-//W3C//DTD SVG 20010904//EN"
 "http://www.w3.org/TR/2001/REC-SVG-20010904/DTD/svg10.dtd">
<svg version="1.0" xmlns="http://www.w3.org/2000/svg"
 width="512.000000pt" height="512.000000pt" viewBox="0 0 512.000000 512.000000"
 preserveAspectRatio="xMidYMid meet">
<metadata>
Created by potrace 1.14, written by Peter Selinger 2001-2017
</metadata>
<g transform="translate(0.000000,512.000000) scale(0.100000,-0.100000)"
fill="#000000" stroke="none">
<path d="M2087 3788 c-19 -29 -82 -121 -139 -203 -56 -83 -229 -334 -383 -558
-154 -225 -305 -444 -335 -487 -30 -43 -75 -107 -98 -142 -191 -278 -292 -425
-299 -433 -4 -6 -25 -36 -46 -67 -21 -31 -45 -59 -53 -62 -8 -3 -14 -13 -14
-22 0 -13 4 -11 20 7 l20 24 -2 -30 c-2 -22 -8 -30 -23 -30 -18 0 -23 -17 -52
-160 -24 -118 -30 -166 -22 -183 5 -13 7 -28 4 -33 -7 -11 39 -78 91 -134 149
-159 330 -181 510 -62 113 74 248 221 467 507 70 91 130 170 134 175 5 6 31
39 58 75 28 36 52 67 55 70 3 3 23 28 45 55 21 28 42 52 45 55 3 3 32 37 65
75 232 274 505 502 735 616 76 37 190 84 230 95 8 2 40 11 70 19 113 32 223
43 380 40 156 -4 168 -5 295 -31 158 -33 358 -105 535 -194 55 -27 103 -50
108 -50 10 0 92 147 92 164 0 13 -215 120 -330 164 -140 54 -274 94 -436 127
-95 20 -397 27 -509 12 -168 -23 -354 -82 -517 -163 -101 -51 -286 -169 -352
-224 -266 -225 -368 -331 -617 -645 -88 -110 -163 -204 -167 -210 -4 -5 -43
-57 -87 -115 -43 -58 -90 -119 -104 -136 -14 -17 -44 -53 -66 -80 -21 -27 -78
-87 -125 -135 -127 -127 -219 -167 -293 -127 -52 27 -158 150 -144 165 11 11
150 93 157 93 5 0 12 5 16 11 4 7 0 9 -12 5 -11 -3 -25 -2 -33 3 -11 7 -10 11
7 20 15 8 21 8 24 -1 3 -7 23 15 46 47 32 47 218 317 294 429 7 10 25 35 39
55 14 20 59 86 100 146 40 61 76 112 79 115 3 3 28 39 55 80 28 41 54 79 58
85 8 10 105 151 219 317 73 107 180 263 353 513 76 110 139 207 141 215 4 13
-96 89 -226 173 l-27 17 -36 -52z m-1393 -2323 c-4 -8 -12 -15 -20 -15 -17 0
-18 17 -1 23 22 9 27 7 21 -8z"/>
</g>
</svg>
